<svg xmlns="http://www.w3.org/2000/svg" viewBox="0 0 23.5 23.5"><title>Asset 2</title><path d="M11.75,19A7.25,7.25,0,1,1,19,11.72,7.26,7.26,0,0,1,11.75,19Zm0-14a6.75,6.75,0,1,0,6.75,6.75A6.76,6.76,0,0,0,11.75,5Z"/><path d="M12.82,23.5H10.7a.75.75,0,0,1-.74-.66l-.26-2.07a9.13,9.13,0,0,1-2.85-1.19L5.18,20.87a.75.75,0,0,1-1-.06l-1.5-1.5a.75.75,0,0,1-.06-1l1.29-1.64a9.13,9.13,0,0,1-1.18-2.85L.66,13.57A.75.75,0,0,1,0,12.82V10.7A.75.75,0,0,1,.66,10L2.73,9.7A9.12,9.12,0,0,1,3.92,6.84L2.63,5.18a.75.75,0,0,1,.06-1l1.5-1.5a.75.75,0,0,1,1-.06L6.83,3.92A9.14,9.14,0,0,1,9.68,2.73L9.94.66A.75.75,0,0,1,10.69,0h2.12a.75.75,0,0,1,.74.66l.26,2.07a9.13,9.13,0,0,1,2.85,1.19l1.66-1.29a.75.75,0,0,1,1,.06l1.5,1.5a.75.75,0,0,1,.06,1L19.58,6.83a9.11,9.11,0,0,1,1.18,2.85l2.08.26a.75.75,0,0,1,.66.75v2.11a.75.75,0,0,1-.66.75h0l-2.06.26a9.15,9.15,0,0,1-1.19,2.85l1.29,1.66a.75.75,0,0,1-.06,1l-1.5,1.5a.75.75,0,0,1-1,.06l-1.65-1.29a9.15,9.15,0,0,1-2.85,1.19l-.26,2.07A.75.75,0,0,1,12.82,23.5ZM6.83,19a.25.25,0,0,1,.14,0,8.65,8.65,0,0,0,3,1.25.25.25,0,0,1,.2.21l.28,2.25a.25.25,0,0,0,.25.22h2.12a.27.27,0,0,0,.25-.22l.28-2.25a.25.25,0,0,1,.2-.21,8.65,8.65,0,0,0,3-1.25.25.25,0,0,1,.29,0l1.79,1.4a.25.25,0,0,0,.33,0l1.5-1.5a.25.25,0,0,0,0-.33l-1.4-1.8a.25.25,0,0,1,0-.29,8.63,8.63,0,0,0,1.25-3,.25.25,0,0,1,.21-.2l2.23-.28a.25.25,0,0,0,.22-.25V10.69a.25.25,0,0,0-.22-.25l-2.25-.28a.25.25,0,0,1-.21-.2,8.63,8.63,0,0,0-1.25-3,.25.25,0,0,1,0-.29l1.39-1.79a.25.25,0,0,0,0-.33L19,3a.25.25,0,0,0-.33,0l-1.79,1.4a.25.25,0,0,1-.29,0,8.65,8.65,0,0,0-3-1.25.25.25,0,0,1-.2-.21L13.05.72A.25.25,0,0,0,12.81.5H10.69a.25.25,0,0,0-.25.22L10.16,3a.25.25,0,0,1-.2.21A8.65,8.65,0,0,0,7,4.43a.25.25,0,0,1-.29,0L4.87,3a.25.25,0,0,0-.33,0L3,4.55a.25.25,0,0,0,0,.33l1.4,1.8a.25.25,0,0,1,0,.29,8.63,8.63,0,0,0-1.25,3,.25.25,0,0,1-.21.2l-2.25.28a.25.25,0,0,0-.22.25v2.12a.25.25,0,0,0,.22.25L3,13.35a.25.25,0,0,1,.21.2,8.63,8.63,0,0,0,1.25,3,.25.25,0,0,1,0,.29L3,18.63A.25.25,0,0,0,3,19l1.5,1.5a.25.25,0,0,0,.33,0l1.8-1.4A.25.25,0,0,1,6.83,19Zm16-5.72h0Z"/><path d="M11.75,9a.25.25,0,0,1-.25-.25v-1a.25.25,0,0,1,.5,0v1A.25.25,0,0,1,11.75,9Z"/><path d="M12.28,15h-2a.25.25,0,0,1,0-.5h2a1.09,1.09,0,0,0,.41-2.11l-2.06-.83a1.59,1.59,0,0,1,.59-3.07h2a.25.25,0,0,1,0,.5h-2a1.09,1.09,0,0,0-.41,2.1l2.06.83A1.59,1.59,0,0,1,12.28,15Z"/><path d="M11.75,16a.25.25,0,0,1-.25-.25v-1a.25.25,0,0,1,.5,0v1A.25.25,0,0,1,11.75,16Z"/></svg>