<svg xmlns="http://www.w3.org/2000/svg" viewBox="0 0 22.5 16"><title>Asset 1</title><path d="M19.25,5a2.5,2.5,0,1,1,2.5-2.5A2.5,2.5,0,0,1,19.25,5Zm0-4.5a2,2,0,1,0,2,2A2,2,0,0,0,19.25.5Z"/><path d="M20.25,16h-2a.25.25,0,0,1-.25-.22l-.48-4.28H16.25a.25.25,0,0,1-.25-.25V8.75a3.25,3.25,0,0,1,6.5,0v2.5a.25.25,0,0,1-.25.25H21l-.48,4.28A.25.25,0,0,1,20.25,16Zm-1.78-.5H20l.48-4.28a.25.25,0,0,1,.25-.22H22V8.75a2.75,2.75,0,0,0-5.5,0V11h1.25a.25.25,0,0,1,.25.22Z"/><path d="M3.25,5a2.5,2.5,0,1,1,2.5-2.5A2.5,2.5,0,0,1,3.25,5Zm0-4.5a2,2,0,1,0,2,2A2,2,0,0,0,3.25.5Z"/><path d="M4.25,16h-2A.25.25,0,0,1,2,15.78L1.53,11.5H.25A.25.25,0,0,1,0,11.25V8.75a3.25,3.25,0,0,1,6.5,0v2.5a.25.25,0,0,1-.25.25H5L4.5,15.78A.25.25,0,0,1,4.25,16Zm-1.78-.5H4l.48-4.28A.25.25,0,0,1,4.75,11H6V8.75a2.75,2.75,0,0,0-5.5,0V11H1.75a.25.25,0,0,1,.25.22Z"/><path d="M11.25,5.5a.25.25,0,0,1-.2-.41l1.88-2.34L11.05.41a.25.25,0,0,1,.39-.31l2,2.5a.25.25,0,0,1,0,.31l-2,2.5A.25.25,0,0,1,11.25,5.5Z"/><path d="M13.25,3h-4a.25.25,0,0,1,0-.5h4a.25.25,0,0,1,0,.5Z"/><path d="M11.25,14.5a.25.25,0,0,1-.2-.09l-2-2.5a.25.25,0,0,1,0-.31l2-2.5a.25.25,0,0,1,.39.31L9.57,11.75l1.88,2.34a.25.25,0,0,1-.2.41Z"/><path d="M13.25,12h-4a.25.25,0,0,1,0-.5h4a.25.25,0,0,1,0,.5Z"/></svg>