<svg xmlns="http://www.w3.org/2000/svg" viewBox="0 0 23 23.5"><title>Asset 1</title><path d="M22.75,23.5h-19a.25.25,0,0,1-.21-.38L12,9.62a1.51,1.51,0,0,1,2.41,0L23,23.12a.25.25,0,0,1-.21.38ZM4.2,23H22.3L14,9.88a1.06,1.06,0,0,0-1.59,0Z"/><path d="M3.75,23.5H.25A.25.25,0,0,1,0,23.12l3.5-5.5A1.6,1.6,0,0,1,4.74,17a1.6,1.6,0,0,1,1.2.59l.68,1.34a.25.25,0,1,1-.45.22l-.65-1.3a1.09,1.09,0,0,0-.78-.36,1.08,1.08,0,0,0-.8.41L.71,23h3a.25.25,0,1,1,0,.5Z"/><path d="M15.31,18.64a1.25,1.25,0,0,1-.89-.36l-.64-.64a.77.77,0,0,0-1.06,0l-.64.64a1.26,1.26,0,0,1-1.69.07L8,16.36A.25.25,0,1,1,8.37,16l2.34,2a.75.75,0,0,0,1,0l.64-.64a1.28,1.28,0,0,1,1.77,0l.64.64a.75.75,0,0,0,1,0l2.35-2a.25.25,0,1,1,.32.38l-2.35,2A1.24,1.24,0,0,1,15.31,18.64Z"/><path d="M13.25,9.5A.25.25,0,0,1,13,9.25v-9a.25.25,0,0,1,.5,0v9A.25.25,0,0,1,13.25,9.5Z"/><path d="M18.75,5.5h-5.5a.25.25,0,1,1,0-.5h5.5A.25.25,0,0,0,19,4.75v-4A.25.25,0,0,0,18.75.5h-5.5a.25.25,0,0,1,0-.5h5.5a.75.75,0,0,1,.75.75v4A.75.75,0,0,1,18.75,5.5Z"/><path d="M21.75,7.5h-3A.75.75,0,0,1,18,6.75V5.25a.25.25,0,0,1,.5,0v1.5a.25.25,0,0,0,.25.25h3A.25.25,0,0,0,22,6.75v-4a.25.25,0,0,0-.25-.25h-2.5a.25.25,0,0,1,0-.5h2.5a.75.75,0,0,1,.75.75v4A.75.75,0,0,1,21.75,7.5Z"/></svg>